**ABCDEFGHIJKLMNOPQRSTUVWXYZabcdefghijklmnopqrstuvwxyz**************************
**PARASOLID !"#$%&'()*+,-./:;<=>?@[\]^_`{|}~0123456789**************************
**PART1;
MC=AMD64;
MC_MODEL=Intel64 Family 6 Model 158 Stepping 10, GenuineIntel;
MC_ID=unknown;
OS=Windows_NT;
OS_RELEASE=unknown;
FRU=Parasolid Version 31.1, build 290,  3- 9-2020;
APPL=SOLIDWORKS 2020-2020128;
SITE=;
USER=unknown;
FORMAT=text;
GUISE=transmit;
KEY=Albero tornio ceramica;
FILE=Albero tornio ceramica.x_t;
DATE=Thu Sep 30 13:51:46 2021;
**PART2;
SCH=SCH_3101290_31100;
USFLD_SIZE=0;
**PART3;
**END_OF_HEADER*****************************************************************
T51 : TRANSMIT FILE created by modeller version 310129023 SCH_3101290_31100_1300
6222 0 12 34 CCCCCCI4 mesh1006 0 I8 polyline1008 0 CCCCCCCDI5 owner1040 0 CCCCCC
I13 boundary_mesh1006 0 I17 boundary_polyline1008 0 CCCA16 index_map_offset0 0 1
 dA9 index_map82 0 A17 node_id_index_map82 0 A20 schema_embedding_map82 0 A5 chi
ld12 0 A14 lowest_node_id0 0 1 dA16 mesh_offset_data206 0 Z1 3424 2 3 0 0 0 0 0
 0 1e3 1e-8 0 4 0 1 0 1 1 5 6 7 8 0 0 9 10 11 0 0 0 0 0 0 0 81 255 2 2 3397 12 1
 13 0 0 0 0 14 70 11 CI9 list_type0 0 1 uI10 notransmit0 0 1 lCCCDCCDI12 finger_
index0 0 1 dI12 finger_block1012 0 CZ3 0 4 T1 0 0 8 20 1 15 15 13 255 5 154 0 1
 0 16 0 0 17 0 52 255 6 2471 18 19 20 0 0 --.0765 -1405282202021588e-32 0 -1 -18
36970198721e-28 0 .0125 .707106781186547 .707106781186548 1836970198721e-28 -1 0
 31 255 7 2356 0 10 21 0 0 +-.0765 -1405282202021588e-32 0 -1 -1836970198721e-28
 0 1836970198721e-28 -1 0 .0125 29 255 8 2320 0 11 22 0 -.0765 -.0175 -214313189
850787e-32 19 8 CCCCCCCA5 owner12 0 Z9 1 0 1 17 0 23 V0 16 255 10 2353 0 ?24 0 2
5 7 0 0 1 18 255 11 2316 0 26 0 27 8 ?1 17 255 26 0 28 26 26 11 29 30 0 29 -18 2
7 2311 0 31 11 32 22 ?1 17 31 0 33 31 31 27 34 35 0 34 -18 32 2291 0 36 27 37 38
 ?1 29 22 2315 0 27 38 8 -.0525 -.0175 -214313189850787e-32 29 38 2295 0 32 39 2
2 .0175 -.015 -183697019872103e-32 29 39 2275 0 37 40 38 .0605 -.0125 -153080849
893419e-32 18 37 2271 0 41 32 42 39 ?1 29 40 1417 0 42 43 39 .0765 .005620498198
55857 .0021 18 42 1415 0 44 37 45 40 ?1 29 43 1411 0 45 46 40 .0765 -.0021 .0056
2049819855856 18 45 1409 0 47 42 48 43 ?1 29 46 199 0 48 49 43 -.0515 -.015 -183
697019872103e-32 18 48 136 0 50 45 51 46 ?1 29 49 175 0 51 52 46 .0185 -.0125 -1
53080849893419e-32 18 51 113 0 53 48 54 49 ?1 29 52 1683 0 54 55 49 .0765 .00562
049819855857 -.0021 18 54 1516 0 56 51 57 52 ?1 29 55 1685 0 57 58 52 .0765 .002
1 .00562049819855856 18 57 1591 0 59 54 60 55 ?1 29 58 1688 0 61 62 55 .0615 .00
21 .00562049819855856 18 61 1590 0 63 64 0 58 ?1 29 62 1689 0 64 65 58 .0615 -.0
021 .00562049819855856 18 64 1599 0 66 67 61 62 ?1 29 65 1698 0 60 68 62 .0615 .
00562049819855857 .0021 18 60 1522 0 69 57 67 65 ?1 29 68 1699 0 67 0 65 .0615 .
00562049819855857 -.0021 18 67 1515 0 70 60 64 68 ?1 17 70 0 71 69 56 67 72 73 0
 74 -15 255 71 1549 0 56 75 0 17 69 0 71 44 70 60 74 76 0 77 +17 56 0 71 70 44 5
4 78 79 0 72 +17 72 0 80 81 82 54 70 73 0 83 +16 73 1498 0 ?72 76 84 85 0 0 1 17
 74 0 86 87 88 67 69 76 0 82 -15 86 1768 0 88 89 0 17 87 0 86 63 74 64 82 90 0 0
 -17 88 0 86 74 63 60 91 92 0 0 -16 76 1491 0 ?69 93 73 94 0 0 1 17 82 0 80 72 9
5 67 87 90 0 0 +15 80 1377 0 82 96 0 17 95 0 80 82 81 64 47 97 0 87 -16 90 1434
 0 ?82 92 93 98 92 92 1 16 92 1294 0 ?91 99 90 98 90 90 1 16 93 1335 0 ?100 90 7
6 101 0 0 1 31 98 1316 0 92 101 102 0 +.0615 1129736672213432e-32 0 1 1836970198
72103e-30 0 -183697019872103e-30 1 0 .006 31 101 1358 0 93 103 98 0 +.0675 12399
54884136694e-32 0 1 183697019872103e-30 0 -183697019872103e-30 1 0 .0016 31 102
 1149 0 99 98 104 0 +-.0645 0 -.016 0 0 1 1 0 0 .007 16 99 1120 0 ?105 106 92 10
2 0 0 1 31 104 231 0 107 102 108 0 +.0185 176349139077219e-31 0 1 18369701987210
3e-30 0 0 0 -1 .0125 16 107 114 0 ?109 110 111 104 0 0 1 30 255 108 236 0 111 10
4 112 0 +.04 -.0125 -153080849893419e-32 -1 -183697019872103e-30 0 16 111 2272 0
 ?53 107 113 108 0 0 1 31 112 263 0 114 108 115 0 +-.0515 477612251667468e-32 0
 1 183697019872103e-30 0 0 0 -1 .015 16 114 137 0 ?116 117 110 112 0 0 1 30 115
 276 0 110 112 118 0 +-.0165 -.015 -183697019872103e-32 -1 -183697019872103e-30
 0 16 110 2292 0 ?50 114 107 115 0 0 1 30 118 277 0 113 115 119 0 +-.0645 -.0175
 -214313189850787e-32 -1 -183697019872103e-30 0 16 113 2312 0 ?120 111 121 118 0
 0 1 38 12 CCCCCCCCCCCA17 intersection_data204 0 Z119 930 0 117 118 122 0 +123 1
24 125 126 126 127 16 117 928 0 ?128 129 114 119 0 0 1 31 122 1104 0 106 119 130
 0 --.0645 0 -.016 0 0 1 1 0 0 .00425 51 255 123 159 0 131 124 132 133 +-.0645 2
38806125833734e-32 0 1 183697019872103e-30 0 .0175 -183697019872103e-30 1 0 51 1
24 1019 0 134 135 123 136 +-.0645 0 -.0175 0 0 1 .0034 1 0 0 40 255 20 125 0 1 2
0 .000196652582320951 .3433304018780685 ??-.0611 301263112590249e-32 .0175 -.061
2875260712144 .001113557927039604 .0174645351711154 -.0618271454617088 .00210139
206649685 .0173733747839291 -.0626694177822584 .0028651297953301 .01726386489914
445 -.0637282986858495 .003311265178408145 .0171838739205763 -.0648635224398819
 .003380510528855415 .01717038580126545 -.065942161072029 .003078988704481445 .0
1722700869442155 -.0668673447613689 .002440425942498425 .0173290023145933 -.0675
423266889814 .001517975071439395 .01743404002755785 -.0678740434367399 .00041932
19371702805 .01749497553908 -.0678249086523147 -.000710621174581142 .01748556597
729215 -.0674140006399466 -.001751742067312065 .0174121049769868 -.0666791777167
059 -.00260982460694441 .01730430049210275 -.0656874522527747 -.0031858997390659
25 .0172075577248086 -.0645633630834024 -.00339940952514723 .0171666541550862 -.
0634506330603231 -.003234011290319375 .0171985804929967 -.062457094395436 -.0027
1781836972983 .01728766795461895 -.0616757908328193 -.00189310395383144 .0173973
031651457 -.0612065117127019 -.000844354724881792 .017479618562731 -.0611 398013
1658218455e-33 .0175 41 3 CI8 term_use0 0 1 cCZ1 126 H?-.0611 3980131658218455e-
33 .0175 204 2 17 INTERSECTION_DATA17 Intersection data7 uv_type0 0 1 u6 values0
 1 1 fT80 127 4 1.570796326794895 .0034 886067978206615e-30 .035 1.5071214257314
45 .00321247392878561 .333674470159174 .0349645351711154 1.450426318358392 .0026
7285453829125 .666268055032701 .0348733747839291 1.406334237165174 .001830582217
741585 1.00225129998806 .03476386489914445 1.380433527430504 .000771701314150553
 1.341829973617756 .0346838739205763 1.376402280229564 -.0003635224398818715 1.6
7791945342794 .03467038580126545 1.393933497706264 -.00144216107202895 2.0088359
80485835 .03472700869442155 1.430887421127668 -.00236734476136888 2.340995022972
9 .0348290023145933 1.48394574933236 -.00304232668898141 2.678783773543035 .0349
3404002755785 1.546832779790685 -.00337404343673993 3.01794786518912 .0349949755
3908 1.61141441895589 -.00332490865231466 3.35215128677738 .03498556597729215 1.
67106379666108 -.00291400063994661 3.68285493920354 .03491210497698685 1.7204875
69106025 -.00217917771670588 4.016673734982105 .03480430049210275 1.753868654197
57 -.001187452252774682 4.35561769076779 .0347075577248086 1.766291166812865 -63
3630834024352e-19 4.6937517004651 .0346666541550862 1.756665336556425 .001049366
93967686 5.02614907433755 .0346985804929967 1.726731412216695 .00204290560456402
 5.3569587546206 .03478766795461895 1.67918580257626 .00282420916718075 5.692662
60602886 .0348973031651457 1.619063908008765 .0032934882872981 6.03221950137294
 .034979618562731 1.570796326794895 .0034 1170626958299544e-30 .035 14 255 134 1
006 137 ?138 139 140 5 124 -0 0 138 139 23 51 135 1083 0 141 142 124 143 +-.0645
 0 -.03 0 0 1 .00425 1 0 0 141 255 136 119 144 144 124 141 144 145 136 136 124 3
8 145 2225 0 146 147 148 0 +124 149 150 151 151 152 16 146 2190 0 ?153 154 155 1
45 0 0 1 31 147 2227 0 155 0 145 0 +-.0475 -872560844392489e-32 0 -1 -1836970198
72103e-30 0 183697019872103e-30 -1 0 .0125 38 148 2224 0 154 145 85 0 +135 149 1
56 157 157 158 51 149 2221 0 159 160 161 162 +-.0475 -872560844392489e-32 0 -1 -
183697019872103e-30 0 .0125 183697019872103e-30 -1 0 40 20 150 0 1 20 .000201648
398029719 .349554523751559 ??-.0611 0 .0125 -.061283707109513 -.0011024790440650
66 .01245128667878936 -.0618106648272858 -.002080258716795195 .0123256855254058
 -.0626423093580978 -.00284762804435356 .01217131934183846 -.0637041348226719 -.
003305540594141375 .01205501561095976 -.064835948804761 -.00338336199668017 .012
03340606808482 -.0658979303226628 -.00309932102451165 .01210967419821938 -.06681
89155960229 -.002486489585444085 .01225019875518264 -.0675119622859372 -.0015773
65901777955 .01240007729056188 -.0678661338530609 -.000478688712293962 .01249083
09217891 -.0678384344326864 .000644092802827298 .01248339474907952 -.06745854415
74328 .001675415312249495 .0123872104822466 -.0667567630370631 .0025430337383813
1 .0122385856783149 -.0657799511610406 .003149876985748935 .01209662246144142 -.
0646570701801643 .00339636996784849 .0120297411045083 -.0635530877971991 .003265
47964014272 .01206592900359576 -.0625625190925129 .002793951991914495 .012183752
7989892 -.0617558067912174 .002007337448679565 .0123377711263878 -.0612419772398
758 .000972259067590815 .0124621311301674 -.0611 1993177614987205e-37 .0125 41 1
 151 H?-.0611 1993177614987205e-37 .0125 204 80 152 4 0 .03 1.5707963267949 .013
6 5.95295749244234 .02995128667878935 1.482483252820028 .01378370710951298 5.624
79956941687 .0298256855254058 1.403597700742554 .01431066482728582 5.29042442196
293 .02967131934183845 1.34096812755145 .0151423093580978 4.94865908603395 .0295
5501561095975 1.30316975396946 .0162041348226719 4.61341901816219 .0295334060680
848 1.29670846457216 .01733594880476105 4.288667156551475 .0296096741982194 1.32
0237182958044 .0183979303226628 3.96184867105405 .02975019875518265 1.3705414027
885 .01931891559602285 3.624020328056795 .0299000772905619 1.444269731165612 .02
001196228593725 3.28285277685105 .0299908309217891 1.53249186357679 .02036613385
306085 2.95100182347415 .0299833947490795 1.622346579840275 .0203384344326864 2.
626323343842525 .0298872104822466 1.70523414691804 .01995854415743285 2.29662280
4814585 .0297385856783149 1.77566920581696 .01925676303706315 1.95676445880553 .
02959662246144145 1.825532556324745 .0182799511610406 1.61700988651488 .02952974
11045083 1.845965341853375 .01715707018016425 1.288560625438266 .029565929003595
75 1.835101228947445 .01605308779719905 .964476275046276 .0296837527989892 1.796
21674065183 .0150625190925129 .631546128046351 .0298377711263878 1.7320816652932
1 .0142558067912174 .290006599773784 .0299621311301674 1.64865569332579 .0137419
7723987578 586228710290354e-34 .03 1.5707963267949 .0136 14 159 2198 163 ?164 16
5 166 5 149 -0 0 164 165 23 50 255 160 2223 0 164 0 149 0 +-.0475 -8725608443924
89e-32 0 -1 -183697019872103e-30 0 183697019872103e-30 -1 0 50 161 1649 0 75 149
 167 168 +.0527003206208256 .00562049819855857 .0021 183697019872103e-30 -1 0 1
 183697019872103e-30 0 141 162 145 169 169 149 141 169 148 162 162 149 14 75 154
6 170 ?171 96 71 5 161 -0 0 171 96 23 50 167 1645 0 172 161 173 174 +.0527003206
208256 .0021 .00562049819855856 0 0 -1 -1 0 0 141 168 175 168 168 161 38 175 142
5 0 79 176 177 0 +178 161 179 180 181 182 16 79 1423 0 ?56 183 184 175 0 0 1 38
 176 1420 0 184 185 175 0 +178 167 186 187 188 189 31 177 2252 0 183 175 190 0 +
.0765 1405282202021586e-32 0 1 1836970198721035e-31 0 -1836970198721035e-31 1 0
 .0016 52 178 1395 191 192 193 194 195 +.0775 1423651904008798e-32 0 -1 -1836970
19872102e-30 0 .005 .707106781186546 .707106781186549 183697019872102e-30 -1 0 4
0 5 179 0 1 5 .000978724527269852 .387720817924445 ??.0739691339921209 .00562049
819855857 .00641760662898458 .0765088005957008 .00562049819855857 .0020747217408
7905 .0768711654836453 .00562049819855857 -.0003062319586617075 .076287624268427
7 .00562049819855857 -.00264643387036749 .0739691339921209 .00562049819855857 -.
00641760662898457 41 1 180 L?.0739691339921209 .00562049819855857 .0064176066289
8458 41 1 181 L?.0739691339921209 .00562049819855857 -.00641760662898457 204 20
 182 4 2.290075568067795 .00353086600787908 .02126881337129535 .0043176066289845
8 2.78797392436792 .000991199404299188 .02380847997487525 -2527825912095265e-20
 3.196023677303065 .000628834516354661 .02417084486281975 -.00240623195866171 3.
58165276742298 .001212375731572276 .02358730364760215 -.00474643387036749 3.9931
0973911179 .00353086600787908 .02126881337129535 -.00851760662898457 81 2 191 13
96 196 178 0 0 0 197 198 199 14 192 1388 200 ?172 201 202 5 178 +0 0 172 201 23
 50 193 174 0 16 203 178 0 +.0185 .0125 0 1 183697019872103e-30 0 -1836970198721
03e-30 1 0 52 194 2389 197 204 178 205 0 -.0765 1405282202021586e-32 0 1 1836970
198721035e-31 0 .0016 .707106781186539 .707106781186556 -1836970198721035e-31 1
 0 141 195 176 206 206 178 141 206 175 195 195 178 81 2 197 2390 196 194 0 0 191
 207 208 209 14 204 2382 210 ?211 164 212 5 194 +0 0 211 164 23 52 205 2403 207
 211 194 213 0 +.0615 255338857622223e-31 0 -1 -183697019872105e-30 0 .0115 .707
106781186548 .707106781186547 183697019872105e-30 -1 0 81 2 207 2404 196 205 0 0
 197 214 215 216 14 211 2396 217 ?218 204 219 5 205 +0 0 218 204 23 52 213 2420
 214 218 205 220 0 +.0185 176349139077219e-31 0 -1 -183697019872103e-30 0 .014 .
707106781186544 .707106781186551 183697019872103e-30 -1 0 81 2 214 2421 196 213
 0 0 207 221 222 223 14 218 2413 224 ?225 211 226 5 213 +0 0 225 211 23 52 220 2
437 221 225 213 20 0 +-.0515 477612251667468e-32 0 -1 -183697019872102e-30 0 .01
65 .707106781186539 .707106781186556 183697019872102e-30 -1 0 81 2 221 2438 196
 220 0 0 214 227 228 229 14 225 2430 230 ?231 218 33 5 220 +0 0 231 218 23 52 20
 2454 227 231 220 6 0 +-.0775 2311115933264685e-48 0 1 183697019872103e-30 0 .01
65 .707106781186554 .707106781186541 -183697019872103e-30 1 0 81 2 227 2455 196
 20 0 0 221 18 232 233 14 231 2447 234 ?19 225 28 5 20 +0 0 19 225 23 81 1 234 3
406 235 231 236 0 230 237 238 14 19 2464 237 ?0 231 239 5 6 +0 0 0 231 23 15 28
 2448 0 26 231 240 13 23 2 0 0 0 0 0 0 9 16 14 16 140 241 ?242 0 243 5 193 +0 0
 242 0 23 81 1 241 3408 235 16 244 0 237 245 246 14 242 110 245 ?141 16 247 5 24
8 +0 0 141 16 23 15 243 2284 0 249 16 250 17 249 0 243 249 249 0 251 252 0 0 +15
 250 142 0 253 16 0 17 253 0 250 253 253 51 109 107 0 0 -17 109 0 247 254 53 51
 253 107 0 253 +15 247 2081 0 254 242 0 17 254 0 247 255 109 37 53 111 0 0 -17 5
3 0 247 109 255 51 254 111 0 109 +17 255 0 247 53 254 37 41 256 0 254 +17 41 0 2
19 41 41 37 255 256 0 255 -16 256 2276 0 ?255 252 257 258 0 0 1 16 252 2283 0 ?2
49 259 256 260 0 0 1 16 257 2261 0 ?261 256 262 263 0 0 1 31 258 2278 0 256 263
 260 0 -.0605 253501887423502e-31 0 1 183697019872105e-30 0 -183697019872105e-30
 1 0 .0125 31 263 2264 0 257 190 258 0 +.0615 255338857622223e-31 0 1 1836970198
72103e-30 0 -183697019872103e-30 1 0 .0115 31 260 2286 0 252 258 264 0 +.0185 17
6349139077219e-31 0 1 183697019872103e-30 0 -183697019872103e-30 1 0 .014 31 264
 2298 0 259 260 265 0 -.0175 174512168878498e-31 0 1 183697019872103e-30 0 -1836
97019872103e-30 1 0 .015 16 259 2296 0 ?266 267 252 264 0 0 1 31 265 2306 0 267
 264 268 0 +-.0515 477612251667468e-32 0 1 183697019872103e-30 0 -18369701987210
3e-30 1 0 .0165 16 267 2303 0 ?269 30 259 265 0 0 1 31 268 2323 0 30 265 270 0 -
-.0765 183697019872097e-33 0 -1 -183697019872103e-30 0 183697019872103e-30 -1 0
 .0175 16 30 2321 0 ?29 35 267 268 0 0 1 31 270 2331 0 35 268 271 0 --.0525 4592
42549680258e-32 0 1 183697019872102e-30 0 -183697019872102e-30 1 0 .0175 16 35 2
329 0 ?34 272 30 270 0 0 1 31 271 2340 0 272 270 21 0 --.0775 -1423651904008798e
-32 0 -1 -183697019872103e-30 0 183697019872103e-30 -1 0 .0135 16 272 2337 0 ?27
3 25 35 271 0 0 1 31 21 2348 0 25 271 7 0 +-.0775 1754330113951465e-48 0 -1 -183
697019872103e-30 0 183697019872103e-30 -1 0 .0165 16 25 2345 0 ?274 10 272 21 0
 0 1 17 274 0 275 274 274 0 276 25 0 0 +15 275 2346 0 274 165 277 17 276 0 240 2
76 276 0 274 25 0 0 -15 240 2449 0 276 231 0 14 165 95 278 ?159 89 275 5 132 +0
 0 159 89 23 15 277 2338 0 273 165 0 17 273 0 277 273 273 0 279 272 0 0 +17 279
 0 239 279 279 0 273 272 0 0 -15 239 2465 0 279 19 280 15 280 2466 0 281 19 0 17
 281 0 280 281 281 0 24 10 0 0 -17 24 0 166 24 24 0 281 10 0 0 +15 166 2354 0 24
 159 282 15 282 2201 0 283 159 284 17 283 0 282 283 283 0 153 146 0 0 -15 284 22
02 0 285 159 286 17 285 0 284 285 285 0 287 155 0 0 -15 286 2204 0 288 159 0 17
 288 0 286 288 288 0 289 154 0 0 -17 289 0 290 289 289 0 288 154 0 0 +16 154 219
4 0 ?289 97 146 148 0 0 1 16 97 1567 0 ?47 291 154 103 0 0 1 17 47 0 292 59 66 4
5 95 97 0 293 +16 291 1566 0 ?294 295 97 296 0 0 1 30 103 1660 0 97 296 101 0 +.
0527003206208256 -.0021 .00562049819855856 1 183697019872103e-30 0 30 296 1661 0
 291 297 103 0 +.0527003206208256 .0021 .00562049819855856 1 183697019872103e-30
 0 30 297 1667 0 295 94 296 0 +.0615 .0021 .00562049819855856 183697019872103e-3
0 -1 0 16 295 1562 0 ?66 84 291 297 0 0 1 30 94 1669 0 76 298 297 0 +.0615 .0056
2049819855857 .0021 0 0 1 30 298 1670 0 84 85 94 0 +.0527003206208256 .005620498
19855857 .0021 1 183697019872103e-30 0 16 84 1494 0 ?44 73 295 298 0 0 1 30 85 1
671 0 73 148 298 0 +.0527003206208256 .00562049819855857 -.0021 1 18369701987210
3e-30 0 17 44 0 71 56 69 42 77 84 0 78 +17 77 0 299 91 300 60 44 84 0 88 -17 78
 0 202 301 83 42 56 79 0 300 -15 202 1424 0 78 192 302 17 301 0 202 293 78 57 30
0 303 0 0 -17 83 0 202 78 293 54 81 304 0 0 -17 300 0 299 77 294 42 301 303 0 0
 +15 299 1447 0 300 171 0 17 294 0 299 300 91 57 305 291 0 301 +16 303 1413 0 ?3
00 304 129 185 304 304 1 16 304 1376 0 ?81 184 303 185 303 303 1 16 129 1370 0 ?
306 303 117 307 0 0 1 31 185 1379 0 304 307 176 0 -.0765 1405282202021588e-32 0
 1 183697019872102e-30 0 -183697019872102e-30 1 0 .006 31 307 1373 0 129 130 185
 0 +.0775 1423651904008798e-32 0 1 183697019872103e-30 0 -183697019872103e-30 1
 0 .005 38 130 1110 0 121 122 307 0 +123 142 308 309 309 310 16 121 1119 0 ?311
 113 106 130 0 0 1 51 142 1146 0 138 312 135 313 +-.0645 0 -.046 0 0 1 .007 1 0
 0 40 21 308 0 1 21 .000445888670519116 .364489199319437 ??-.0575 0 -.0175 -.057
8606800288393 -.002217978881898185 -.01735887581842365 -.058887766011343 -.00418
363832764779 -.01699256220654895 -.0605436284057555 -.00577469685855932 -.016519
772280263 -.0627432617850028 -.00677597748254585 -.0161349350527367 -.0650676690
127792 -.00697694430907474 -.0160490575457897 -.0671707139360785 -.0064704935724
9014 -.01625984972034995 -.0690328425218426 -.00533416710201093 -.01666723316354
05 -.0705394795157485 -.00353902347814394 -.0171384162868436 -.071382786569761 -
.001275636717532976 -.01745344524627965 -.0714260266187343 .001014965652908294 -
.0174705421988963 -.0707799848558385 .003092214450913575 -.0172246396127629 -.06
94980623537167 .00490095630549384 -.01679972104803055 -.0675849707179905 .006283
54642452343 -.01633300475512265 -.0652696780807113 .00695755673006499 -.01605747
19164608 -.0630210581470713 .00684198297247632 -.0161070564972109 -.061020303414
9542 .00607385476250631 -.01641213844457755 -.0592774249200321 .0046609773153383
4 -.01686787747364505 -.0580106086832481 .002624461914005445 -.01730208656960005
 -.0575063762594818 .0002987088483125795 -.01749745047210995 -.0575 -14933526726
52206e-34 -.0175 41 1 309 H?-.0575 -1493352672652206e-34 -.0175 204 84 310 4 4.7
1238898038469 .007 0 .0285 4.58530553556003 .00663931997116073 5.96077443868718
 .02864112418157635 4.47098611624068 .00561223398865696 5.64260273554043 .029007
43779345105 4.376103755508655 .00395637159424454 5.31305973260978 .0294802277197
37 4.314797617346775 .00175673821499722 4.96606353454005 .0298650649472633 4.302
309159677535 -.000567669012779147 4.63120425564273 .0299509424542103 4.333657125
60231 -.00267071393607847 4.32093743424974 .02974015027965005 4.402650524589365
 -.00453284252184259 4.00802548150558 .0293327668364595 4.508754633268 -.0060394
7951574852 3.671640685150635 .0288615837131564 4.63943074594659 -.00688278656976
095 3.32485048724811 .02854655475372035 4.77041958237647 -.00692602661873433 2.9
96084640220845 .0285294578011037 4.89001959542449 -.00627998485583853 2.68404992
847643 .0287753603872371 4.99624001301165 -.00499806235371671 2.366003839676685
 .02920027895196945 5.07964929633791 -.00308497071799049 2.02718591558715 .02966
699524487735 5.12126109804963 -.000769678080711266 1.68097310765036 .02994252808
35392 5.11407471815247 .0014789418529287 1.35791464165623 .0298929435027891 5.06
684197438094 .00347969658504581 1.050543520460118 .0295878615554225 4.9819844713
8556 .00522257507996787 .728637749284767 .02913212252635495 4.86292615360228 .00
648939131675189 .3843138553139675 .02869791343039995 4.72945888639539 .006993623
7405182 .04268565410839205 .0285025495278901 4.71238898038469 .007 0 .0285 14 13
8 1133 314 ?131 134 315 5 142 -0 0 131 134 23 50 312 1147 0 139 316 142 0 +-.064
5 0 -.016 0 0 1 1 0 0 141 313 130 313 313 142 14 139 1129 317 ?134 141 318 5 312
 -0 0 134 141 23 51 316 1313 0 96 319 312 0 -.0775 1423651904008798e-32 0 -1 -18
3697019872103e-30 0 .006 183697019872103e-30 -1 0 14 96 1300 320 ?75 172 80 5 31
6 -171 171 75 172 23 50 319 1315 0 201 321 316 0 +.0775 1423651904008798e-32 0 1
 183697019872103e-30 0 -183697019872103e-30 1 0 14 201 1305 322 ?192 323 324 5 3
19 +0 0 192 323 23 51 321 1354 0 323 173 319 0 +.0675 1239954884136694e-32 0 1 1
83697019872103e-30 0 .0016 -183697019872103e-30 1 0 14 323 1341 325 ?201 326 327
 5 321 -0 0 201 326 23 50 173 1356 0 326 167 321 0 +.0675 1239954884136694e-32 0
 1 183697019872103e-30 0 -183697019872103e-30 1 0 14 326 1346 328 ?323 329 330 5
 173 +0 0 323 329 23 81 1 328 3416 235 326 331 0 325 332 333 14 329 133 332 ?326
 334 335 5 203 +0 0 326 334 23 15 330 1348 0 100 326 0 17 100 0 330 100 100 0 33
6 93 0 0 +17 336 0 337 336 336 0 100 93 0 0 -15 337 1344 0 336 323 0 81 1 332 34
17 235 329 338 0 328 339 340 14 334 150 339 ?329 131 341 5 342 +0 0 329 131 23 1
5 335 1961 0 343 329 0 51 203 172 0 329 342 193 0 +-.0165 112055182121983e-31 0
 1 183697019872103e-30 0 .015 -183697019872103e-30 1 0 50 342 171 0 334 248 203
 0 +-.0515 .015 0 1 183697019872103e-30 0 -183697019872103e-30 1 0 51 248 167 0
 242 344 342 0 +.04 215843998349721e-31 0 1 183697019872103e-30 0 .0125 -1836970
19872103e-30 1 0 50 344 166 0 89 132 248 0 +.0615 .006 0 1 183697019872103e-30 0
 -183697019872103e-30 1 0 14 89 117 345 ?165 171 346 5 344 +0 0 165 171 23 50 13
2 165 0 165 123 344 0 +-.0775 .0175 0 -1 -183697019872103e-30 0 -183697019872103
e-30 1 0 81 1 345 3419 235 89 347 0 339 348 349 14 171 1449 348 ?89 75 299 5 316
 -96 96 89 75 23 15 346 2262 0 261 89 86 17 261 0 346 261 261 0 350 257 0 0 +17
 350 0 351 350 350 0 261 257 0 0 -15 351 2398 0 350 211 0 81 1 348 3420 235 171
 352 0 345 353 354 80 255 1 235 355 356 9000 1 1 1 1 1 1 1 1 0 FFFFTFTFFFFFFF1 8
1 1 352 3321 357 171 0 348 358 347 359 81 1 353 3421 235 172 360 0 348 361 362 8
2 255 1 354 957219304 14 172 1618 353 ?96 192 292 5 167 -0 0 96 192 23 81 1 360
 3318 357 172 0 353 363 364 365 81 1 361 3422 235 131 366 0 353 367 368 82 1 362
 907477480 14 131 86 361 ?334 138 369 5 123 +0 0 334 138 23 81 1 366 3311 357 13
1 0 361 370 371 372 81 1 367 3423 235 164 373 0 361 374 375 82 1 368 746127859 1
4 164 2213 367 ?204 159 376 5 160 +0 0 204 159 23 81 1 373 3325 357 164 0 367 37
7 378 379 81 1 374 3424 235 141 380 0 367 0 381 82 1 375 1052115442 14 141 1070
 374 ?139 242 290 5 135 -0 0 139 242 23 81 1 380 3307 357 141 0 374 382 383 384
 82 1 381 786301426 80 1 357 0 385 8001 0 0 0 0 3 5 0 0 0 FFFFTFTFFFFFFF2 81 1 3
82 3306 357 242 0 245 244 380 386 81 1 383 3308 357 139 0 317 380 387 388 83 255
 3 384 .749019607843137 .749019607843137 .749019607843137 81 1 317 3412 235 139
 383 0 314 320 389 81 1 387 3309 357 134 0 137 383 370 390 83 3 388 .74901960784
3137 .749019607843137 .749019607843137 81 1 137 3398 235 134 387 0 0 163 391 81
 1 370 3310 357 138 0 314 387 366 392 83 3 390 .749019607843137 .749019607843137
 .749019607843137 81 1 314 3411 235 138 370 0 278 317 393 83 3 392 .749019607843
137 .749019607843137 .749019607843137 81 1 278 3410 235 165 394 0 245 314 395 82
 1 393 797311455 81 1 394 3323 357 165 0 278 347 377 396 81 1 245 3409 235 242 3
82 0 241 278 397 82 1 395 733151731 82 1 397 732889587 81 1 347 3322 357 89 0 34
5 352 394 398 81 1 377 3324 357 159 0 163 394 373 399 83 3 396 .749019607843137
 .749019607843137 .749019607843137 81 1 163 3399 235 159 377 0 137 170 400 83 3
 399 .749019607843137 .749019607843137 .749019607843137 81 1 170 3400 235 75 358
 0 163 200 401 82 1 400 1057292787 81 1 358 3320 357 75 0 170 364 352 402 81 1 2
00 3401 235 192 363 0 170 210 403 82 1 401 896532968 81 1 363 3317 357 192 0 200
 404 360 405 81 1 210 3402 235 204 378 0 200 217 406 82 1 403 862192104 81 1 378
 3326 357 204 0 210 373 407 408 81 1 217 3403 235 211 407 0 210 224 409 82 1 406
 1068827123 81 1 407 3327 357 211 0 217 378 410 411 81 1 224 3404 235 218 410 0
 217 230 412 82 1 409 1070203379 81 1 410 3328 357 218 0 224 407 413 414 81 1 23
0 3405 235 225 413 0 224 234 415 82 1 412 1071579635 81 1 413 3329 357 225 0 230
 410 236 416 82 1 415 1072955891 81 1 236 3330 357 231 0 234 413 417 418 83 3 41
6 .749019607843137 .749019607843137 .749019607843137 81 1 417 3331 357 19 0 237
 236 0 419 83 3 418 .749019607843137 .749019607843137 .749019607843137 81 1 237
 3407 235 19 417 0 234 241 420 83 3 419 .749019607843137 .749019607843137 .74901
9607843137 82 1 420 1075708403 83 3 414 .749019607843137 .749019607843137 .74901
9607843137 83 3 411 .749019607843137 .749019607843137 .749019607843137 83 3 408
 .749019607843137 .749019607843137 .749019607843137 81 1 404 3316 357 201 0 322
 421 363 422 83 3 405 .749019607843137 .749019607843137 .749019607843137 81 1 32
2 3414 235 201 404 0 320 325 423 81 1 421 3315 357 323 0 325 331 404 424 83 3 42
2 .749019607843137 .749019607843137 .749019607843137 81 1 325 3415 235 323 421 0
 322 328 425 81 1 331 3314 357 326 0 328 338 421 426 83 3 424 .749019607843137 .
749019607843137 .749019607843137 81 1 338 3313 357 329 0 332 371 331 427 83 3 42
6 .749019607843137 .749019607843137 .749019607843137 81 1 371 3312 357 334 0 339
 366 338 428 83 3 427 .749019607843137 .749019607843137 .749019607843137 81 1 33
9 3418 235 334 371 0 332 345 429 83 3 428 .749019607843137 .749019607843137 .749
019607843137 82 1 429 730071539 82 1 425 856883699 81 1 320 3413 235 96 364 0 31
7 322 430 82 1 423 843776499 81 1 364 3319 357 96 0 320 360 358 431 82 1 430 845
742568 83 3 431 .749019607843137 .749019607843137 .749019607843137 83 3 402 .749
019607843137 .749019607843137 .749019607843137 83 3 398 .749019607843137 .749019
607843137 .749019607843137 82 1 391 763560434 82 1 389 799736287 81 1 244 3305 3
57 16 0 241 0 382 432 83 3 386 .749019607843137 .749019607843137 .74901960784313
7 83 3 432 .749019607843137 .749019607843137 .749019607843137 79 255 15 385 SDL/
TYSA_COLOUR15 290 2185 0 289 141 433 15 433 1102 0 434 141 0 17 434 0 433 434 43
4 0 435 106 0 0 +17 435 0 436 435 435 0 434 106 0 0 -16 106 1123 0 ?434 121 99 1
22 0 0 1 15 436 1132 0 435 139 0 83 3 379 .749019607843137 .749019607843137 .749
019607843137 15 376 2215 0 287 164 0 17 287 0 376 287 287 0 285 155 0 0 +16 155
 2191 0 ?287 146 0 147 0 0 1 83 3 372 .749019607843137 .749019607843137 .7490196
07843137 15 369 2159 0 437 131 438 17 437 0 369 34 29 27 120 113 0 0 -15 438 110
9 0 439 131 440 17 439 0 438 439 439 0 311 121 0 0 -15 440 936 0 441 131 0 17 44
1 0 440 441 441 0 128 117 0 0 -17 128 0 442 128 128 0 441 117 0 0 +15 442 1010 0
 128 134 0 17 311 0 315 311 311 0 439 121 0 0 +15 315 1136 0 311 138 443 15 443
 1137 0 105 138 0 17 105 0 443 105 105 0 444 99 0 0 +17 444 0 318 444 444 0 105
 99 0 0 -15 318 1131 0 444 139 436 17 34 0 369 120 437 27 31 35 0 437 +17 29 0 3
69 437 120 11 26 30 0 120 +17 120 0 369 29 34 11 437 113 0 0 +83 3 365 .74901960
7843137 .749019607843137 .749019607843137 15 292 1621 0 59 172 0 17 59 0 292 305
 47 57 293 184 0 294 +17 305 0 292 66 59 61 294 291 0 91 -17 293 0 202 83 301 45
 59 184 0 81 -16 184 1418 0 ?59 79 304 176 0 0 1 17 81 0 80 95 72 45 83 304 0 0
 +17 66 0 292 47 305 64 63 295 0 95 +17 91 0 299 294 77 61 88 92 0 0 +17 63 0 86
 88 87 61 66 295 0 305 -83 3 359 .749019607843137 .749019607843137 .749019607843
137 79 14 356 SWEntUnchanged82 1 349 733020659 17 343 0 335 266 116 32 50 110 0
 0 -17 266 0 335 50 343 32 36 259 0 343 +17 116 0 335 343 50 48 445 114 0 445 +1
7 50 0 335 116 266 48 343 110 0 116 +17 445 0 446 445 445 48 116 114 0 0 -15 446
 152 0 445 334 0 17 36 0 226 36 36 32 266 259 0 266 -15 226 2414 0 36 218 447 15
 447 2415 0 251 218 0 17 251 0 447 251 251 0 249 252 0 0 -15 341 2304 0 269 334
 446 17 269 0 341 269 269 0 448 267 0 0 +17 448 0 449 448 448 0 269 267 0 0 -15
 449 2432 0 448 225 0 82 1 340 730530291 82 1 333 854917605 15 327 2250 0 450 32
3 337 17 450 0 327 450 450 0 451 183 0 0 +17 451 0 452 451 451 0 450 183 0 0 -16
 183 2249 0 ?450 262 79 177 0 0 1 16 262 2255 0 ?453 257 183 190 0 0 1 17 453 0
 324 453 453 0 454 262 0 0 +31 190 2258 0 262 177 263 0 -.0775 1423651904008798e
-32 0 1 183697019872103e-30 0 -183697019872103e-30 1 0 .0026 15 324 2256 0 453 2
01 455 17 454 0 212 454 454 0 453 262 0 0 -15 212 2383 0 454 204 452 15 452 2384
 0 451 204 0 15 455 1371 0 306 201 0 17 306 0 455 306 306 0 456 129 0 0 +17 456
 0 302 456 456 0 306 129 0 0 -15 302 1390 0 456 192 0 17 153 0 140 153 153 0 283
 146 0 0 +15 140 2180 0 153 134 442 15 219 2397 0 41 211 351 82 1 246 734659059
 82 1 238 1074332147 80 2 196 457 458 8044 0 0 0 0 3 5 0 0 0 FFFFTFFFTTFFFF3 2 8
1 2 18 2472 196 6 0 0 227 0 459 460 84 255 6 232 BAAAAB83 3 233 0 .0009999999999
99959 .000999999999999959 84 6 459 BAAAAB83 3 460 229621274840125e-32 .001000000
000000016 .001000000000000012 79 17 458 SDL/TYSA_BLEND_ID15 33 2431 0 31 225 449
 84 6 228 BAAAAB83 3 229 -3031000827889695e-33 .00099999999999997 .0009999999999
99966 84 6 222 BAAAAB83 3 223 897688673744174e-33 .001000000000000014 .001000000
000000014 84 6 215 BAAAAB83 3 216 0 .000999999999999987 .000999999999999987 84 6
 208 BAAAAB83 3 209 2939152317953655e-34 .00100000000000003 .001 84 6 198 BAAAAB
83 3 199 -918485099360513e-33 .000999999999999986 .000999999999999987 40 5 186 0
 1 5 .000978724527269852 .387720817924445 ??.0739691339921209 -.0064176066289845
7 .00562049819855856 .0765088005957008 -.00207472174087904 .00562049819855856 .0
768711654836453 .000306231958661717 .00562049819855856 .0762876242684277 .002646
4338703675 .00562049819855856 .0739691339921209 .0064176066289846 .0056204981985
5856 41 1 187 L?.0739691339921209 -.00641760662898457 .00562049819855856 41 1 18
8 L?.0739691339921209 .0064176066289846 .00562049819855856 204 20 189 4 .7192792
41272898 .00353086600787908 -.02126881337129535 -.00851760662898458 1.2171775975
73024 .00099119940429919 -.02380847997487525 -.00417472174087905 1.6252273505081
65 .000628834516354662 -.02417084486281975 -.001793768041338295 2.01085644062808
 .001212375731572262 -.02358730364760215 .000546433870367489 2.422313412316895 .
00353086600787908 -.02126881337129535 .00431760662898459 141 174 176 174 174 167
 40 20 156 0 1 20 .000260325655263945 .3569355510556945 ??-.06025 0 -.0125 -.060
4743665781972 .001362635517394282 -.01242550700964494 -.0611156627810916 .002570
751172072405 -.01223279356530176 -.0621391067400654 .00353393308018067 -.0119900
5074988444 -.0634705366272996 .00412343366192161 -.01180030909916056 -.064882382
2325858 .004232763143409135 -.01176153545128344 -.0661855455885411 .003901465887
19545 -.01187554478460042 -.0673281972559012 .00317234933160161 -.01209074851770
09 -.0682189143559481 .002057225318997295 -.01232955084286838 -.068694678222978
 .000683501723241747 -.01248129902671694 -.0686898743898162 -.00071235707167274
 -.01247968538876032 -.0682565593539528 -.00198765233887358 -.01234095774969554
 -.0674273373838993 -.003081103023403395 -.01211432227403474 -.0662323625001845
 -.003880904555378095 -.01188228007715882 -.0648283097659154 -.00423730016609688
 -.01175990167060914 -.0634577920252642 -.00412023088399146 -.01180142777220634
 -.0622287717608213 -.00359221690402421 -.0119727180587552 -.0611916933397712 -.
00266788437565904 -.01221197743848696 -.0604866780814928 -.001398480310347594 -.
01242152377212916 -.06025 593331986760851e-33 -.0125 41 1 157 H?-.06025 59333198
6760851e-33 -.0125 204 80 158 4 0 .0175 4.71238898038469 .01275 .326384098718657
 .01757449299035505 4.60316107364162 .0129743665781972 .64961846607968 .01776720
643469825 4.50525080837996 .01361566278109164 .981827003377743 .0180099492501155
5 4.42576594364266 .01463910674006536 1.326136108447616 .01819969090083945 4.376
218145347695 .01597053662729955 1.660890448952825 .01823846454871655 4.366937997
8091 .01738238223258575 1.97860532777335 .0181244552153996 4.394968157305645 .01
86855455885411 2.29890379837344 .0179092514822991 4.455794563009135 .01982819725
590115 2.63631202958741 .0176704491571316 4.54705879239986 .02071891435594805 2.
98006725591357 .01751870097328305 4.65768155761525 .02119467822297795 3.31000100
277098 .0175203146112397 4.76940843821627 .02118987438981625 3.62826015040032 .0
1765904225030445 4.87207900935714 .0207565593539528 3.952576838263265 .017885677
72596525 4.96144399605719 .0199273373838993 4.292548594562225 .01811771992284115
 5.02807889360111 .01873236250018455 4.6350625861979 .01824009832939085 5.058225
74063262 .01732830976591535 4.9601411711942 .01819857222779365 5.04828841353902
 .01595779202526415 5.27619456476249 .0180272819412448 5.00387653920055 .0147287
717608213 5.60454202335378 .01778802256151305 4.9274742665067 .01369169333977118
 5.94788349368649 .01757847622787085 4.82450212266371 .01298667808149282 1396075
262966706e-31 .0175 4.71238898038469 .01275 141 143 148 143 143 135 141 133 119
 461 461 123 141 461 130 133 133 123 19 17 153 0 1 0 9 5 S0 74 4 CI16 index_map_
offset0 0 1 dCCZ20 15 8 0 0 374 18 462 463 464 13 417 2 0 0 0 0 0 0 0 0 0 0 0 0
 81 2 462 2162 465 1 0 463 0 0 0 466 81 2 463 2166 467 1 462 464 0 0 0 468 81 2
 464 3095 469 1 463 13 0 0 0 470 81 2 13 3303 471 1 464 2 0 0 0 0 80 2 471 472 4
73 9000 0 0 0 0 3 5 0 0 0 FFTFFFFFFFFFFF9 1 79 16 473 BODY_RECIPE_200180 2 469 4
74 475 9000 0 0 0 0 3 5 0 0 0 FFTFFFFFFFFFFF9 1 82 1 470 1 79 24 475 BODY_IN_LIG
HTWEIGHT_PERM80 2 467 476 477 9000 0 0 0 0 3 5 0 0 0 FFTFFFFFFFFFFF9 1 82 1 468
 172 79 30 477 LAST_BODY_MODIFYING_FEATURE_ID80 2 465 478 479 9000 0 0 0 0 3 5 0
 0 0 FFTFFFFFFFFFFT9 1 82 1 466 426 79 19 479 ENT_TIME_STAMP_200180 2 12 480 481
 9000 0 0 0 0 3 5 0 0 0 FFTFFFFFFFFFFF9 1 82 1 14 115 79 12 481 ATOM_ID_20011 0
 
